<?xml version="1.0" encoding="UTF-8"?>
<svg id="Layer_1" xmlns="http://www.w3.org/2000/svg" version="1.1" viewBox="0 0 400 200">
  <!-- Generator: Adobe Illustrator 29.0.1, SVG Export Plug-In . SVG Version: 2.1.0 Build 192)  -->
  <defs>
    <style>
      .st0, .st1, .st2 {
        fill: none;
      }

      .st3 {
        stroke: #fff;
      }

      .st3, .st2 {
        stroke-width: 3px;
      }

      .st3, .st4 {
        fill: #fff;
      }

      .st1 {
        stroke-width: 4px;
      }

      .st1, .st2 {
        stroke: #2b004f;
      }

      .st5 {
        fill: #2b004f;
      }
    </style>
  </defs>
  <circle class="st5" cx="90.6" cy="99.8" r="8"/>
  <line class="st1" x1="91.3" y1="99.8" x2="191.3" y2="99.8"/>
  <circle class="st5" cx="100.6" cy="69.4" r="7"/>
  <circle class="st5" cx="120.6" cy="74.4" r="8"/>
  <line class="st2" x1="100.6" y1="69.4" x2="120.6" y2="69.4"/>
  <circle class="st5" cx="122.6" cy="45.3" r="8"/>
  <line class="st2" x1="122.6" y1="45.3" x2="173.8" y2="99.8"/>
  <circle class="st5" cx="152.4" cy="40.4" r="8"/>
  <line class="st2" x1="120.6" y1="74.8" x2="134.9" y2="74.8"/>
  <line class="st2" x1="133.8" y1="74.3" x2="156.4" y2="99.4"/>
  <line class="st2" x1="152.4" y1="34.9" x2="152.4" y2="55.8"/>
  <line class="st2" x1="151.8" y1="54.6" x2="195.1" y2="100.3"/>
  <rect class="st3" x="202.1" y="83.4" width=".5" height="6.9"/>
  <circle class="st5" cx="101.3" cy="128.9" r="7"/>
  <circle class="st5" cx="121.3" cy="123.9" r="8"/>
  <line class="st2" x1="101.3" y1="128.9" x2="121.3" y2="128.9"/>
  <circle class="st5" cx="123.3" cy="153" r="8"/>
  <line class="st2" x1="123.3" y1="153" x2="174.5" y2="98.6"/>
  <circle class="st5" cx="153.1" cy="157.9" r="8"/>
  <line class="st2" x1="121.3" y1="123.6" x2="135.6" y2="123.6"/>
  <line class="st2" x1="134.5" y1="124.1" x2="157.1" y2="98.9"/>
  <line class="st2" x1="153.1" y1="163.5" x2="153.1" y2="142.6"/>
  <line class="st2" x1="152.5" y1="143.7" x2="195.8" y2="98"/>
  <rect class="st3" x="183.9" y="65.5" width="44.4" height="67.8"/>
  <g>
    <rect class="st0" x="165.5" y="19.3" width="68.9" height="163.4"/>
    <path class="st5" d="M197.8,37.5h-1.5l-10.4-19.6v27.4h-1.3V15.4h1.5l11.7,22.1ZM187.2,22.2l1.3,2.5v20.6h-1.3v-23.1ZM200.7,37.5h-1.5l-11.6-22.1h1.5l11.6,22.1ZM189.8,27.1l1.3,2.5v15.7h-1.3v-18.2ZM214,17.9l-10.4,19.6h-1.5l-11.6-22.1h1.5l10.9,20.7,10.9-20.7h1.5v29.9h-1.3v-27.4ZM192.4,32.1l1.3,2.5v10.8h-1.3v-13.2ZM201.2,31l-.8-1.4,7.5-14.2h1.5l-8.2,15.6ZM202.7,33.8l-.7-1.4,9-17h1.5l-9.7,18.4ZM206.2,34.4l1.3-2.5v13.4h-1.3v-10.9ZM208.8,29.4l1.3-2.5v18.4h-1.3v-15.9ZM211.4,24.5l1.3-2.5v23.3h-1.3v-20.8Z"/>
    <path class="st5" d="M190.5,61.2h1.3v29.9h-1.3v-29.9ZM193.1,61.2h1.3v29.9h-1.3v-29.9ZM195.7,61.2h1.3v29.9h-1.3v-29.9ZM198.3,61.2h1.3v23.4h10.4v1.3h-10.4v1.3h10.4v1.3h-10.4v1.3h10.4v1.3h-11.7v-29.9Z"/>
    <path class="st5" d="M202,136.9h-16.7v-29.9h16.7c2.3,0,4.5.7,6.6,2,2,1.3,3.7,3.2,4.9,5.5,1.2,2.3,1.8,4.8,1.8,7.5s-.4,4-1.1,5.8c-.7,1.8-1.7,3.4-2.9,4.8s-2.6,2.4-4.2,3.2c-1.6.8-3.3,1.2-5.1,1.2ZM186.6,135.6h15.4c1.6,0,3.1-.4,4.6-1.1,1.5-.7,2.7-1.7,3.8-2.9,1.1-1.2,1.9-2.7,2.6-4.4.6-1.7,1-3.5,1-5.3s-.3-3.6-1-5.3c-.6-1.7-1.5-3.1-2.6-4.4s-2.3-2.2-3.8-2.9c-1.5-.7-3-1.1-4.6-1.1h-15.4v27.3ZM187.9,134.3v-24.7h14.1c1.9,0,3.6.6,5.3,1.7,1.6,1.1,2.9,2.6,3.9,4.5,1,1.9,1.4,4,1.4,6.2s-.5,4.3-1.4,6.2c-1,1.9-2.3,3.4-3.9,4.5-1.6,1.1-3.4,1.7-5.3,1.7h-14.1ZM189.2,133h12.8c1.7,0,3.2-.5,4.6-1.5,1.4-1,2.5-2.3,3.4-4,.8-1.7,1.3-3.5,1.3-5.5s-.4-3.8-1.3-5.5-2-3.1-3.4-4-3-1.5-4.6-1.5h-12.8v22.1ZM190.5,131.7v-19.5h11.5c1.4,0,2.7.4,3.9,1.3s2.2,2.1,2.9,3.5c.7,1.5,1.1,3.1,1.1,4.9s-.4,3.4-1.1,4.9c-.7,1.5-1.7,2.7-2.9,3.6s-2.5,1.3-3.9,1.3h-11.5ZM191.8,130.4h10.2c1.8,0,3.3-.8,4.6-2.5,1.3-1.7,1.9-3.6,1.9-6s-.3-2.9-.9-4.2c-.6-1.3-1.4-2.3-2.4-3.1-1-.8-2.1-1.1-3.3-1.1h-10.2v16.9ZM193.1,129.1v-14.3h8.9c1.4,0,2.7.7,3.7,2.1,1,1.4,1.5,3.1,1.5,5s-.5,3.7-1.5,5.1c-1,1.4-2.3,2.1-3.7,2.1h-8.9ZM194.4,127.8h7.6c1.1,0,2-.6,2.8-1.7.8-1.1,1.1-2.5,1.1-4.1s-.4-3-1.1-4.1c-.8-1.1-1.7-1.7-2.8-1.7h-7.6v11.7Z"/>
    <path class="st5" d="M201.1,164.4h-2.2c-.9,0-1.6-.2-2-.7-.4-.5-.6-1.1-.6-1.9,0-1.7,1.3-2.6,3.9-2.6s4.3.4,5.5,1.1l-1,.8c-.8-.4-2.3-.6-4.4-.6s-1.7.1-2.1.3c-.4.2-.5.5-.5,1s0,.7.3,1c.2.2.5.3,1.1.3h2.2c1.6,0,3.1.3,4.4.8s2.4,1.3,3.2,2.3c.8,1,1.5,2.1,1.9,3.3.4,1.2.7,2.6.7,4s-.2,2.3-.5,3.3-.8,2-1.5,2.9-1.4,1.6-2.4,2.2c-.9.6-2,1.1-3.3,1.5-1.3.4-2.6.5-4.1.5-2.3,0-4.5-.4-6.5-1.1-2-.7-3.7-1.7-5.1-3l1-.8c1.2,1.1,2.8,2,4.6,2.6,1.8.6,3.8.9,5.9.9s3.1-.2,4.5-.7c1.3-.5,2.4-1.1,3.3-2s1.5-1.8,2-2.9.7-2.3.7-3.5-.3-3.2-1-4.5c-.7-1.4-1.7-2.5-3.1-3.3s-3-1.3-4.9-1.3ZM199,171h2c.9,0,1.6.2,2,.7.4.5.6,1.1.6,1.9,0,1.7-1.3,2.6-3.9,2.6s-4.3-.4-5.5-1.1l1-.8c.8.4,2.3.6,4.5.6s1.7-.1,2.1-.3c.4-.2.5-.5.5-1s0-.7-.3-.9c-.2-.2-.6-.4-1.1-.4h-2c-1.7,0-3.2-.3-4.5-.8-1.3-.5-2.4-1.3-3.3-2.2-.9-1-1.5-2.1-2-3.3-.5-1.3-.7-2.6-.7-4s.2-2.3.5-3.3.8-2,1.5-2.9c.7-.9,1.4-1.6,2.4-2.2.9-.6,2-1.1,3.3-1.5,1.3-.4,2.6-.5,4.1-.5,2.3,0,4.5.4,6.5,1.1,2,.7,3.7,1.7,5.1,3l-1,.8c-1.2-1.1-2.8-2-4.6-2.6-1.8-.6-3.8-.9-5.9-.9s-3.1.2-4.5.7c-1.3.5-2.4,1.1-3.3,2-.9.8-1.5,1.8-2,2.9-.5,1.1-.7,2.3-.7,3.5s.3,3.2,1,4.6,1.7,2.5,3.1,3.3,3.1,1.2,5,1.2ZM199,165.7h2.1c2.4,0,4.4.7,5.7,2.2s2.1,3.3,2.1,5.6-.8,4.1-2.4,5.6c-1.6,1.5-3.8,2.2-6.7,2.2s-3.7-.3-5.4-.8c-1.7-.5-3.1-1.3-4.2-2.2l1-.8c1,.8,2.2,1.4,3.7,1.9,1.5.4,3.1.7,4.8.7,2.5,0,4.5-.6,5.8-1.8,1.3-1.2,2-2.8,2-4.7s-.6-3.4-1.7-4.7c-1.1-1.2-2.7-1.8-4.8-1.8h-2c-1.8,0-3.1-.5-4-1.4-.9-1-1.3-2.2-1.3-3.8s.5-2.8,1.6-3.8c1.1-1,2.7-1.4,4.9-1.4s3,.2,4.3.5,2.4.9,3.3,1.5l-1,.8c-1.5-1-3.7-1.6-6.5-1.6s-3.1.4-4,1.1c-.8.7-1.3,1.7-1.3,2.8s.3,2.1.9,2.8c.6.7,1.6,1.1,3,1.1ZM199,168.3h2c1.8,0,3.1.5,4,1.5.9,1,1.3,2.2,1.3,3.7s-.5,2.8-1.6,3.8-2.7,1.4-4.9,1.4-3-.2-4.3-.5c-1.3-.4-2.4-.9-3.3-1.5l1-.8c1.5,1,3.7,1.6,6.5,1.6s3.1-.4,4-1.1c.8-.7,1.3-1.7,1.3-2.8s-.3-2.1-.9-2.8-1.6-1.1-3.1-1.1h-2c-2.5,0-4.4-.7-5.8-2.2-1.4-1.5-2.1-3.3-2.1-5.6s.8-4.1,2.4-5.6c1.6-1.5,3.8-2.2,6.7-2.2s3.7.3,5.4.8c1.7.5,3.1,1.3,4.2,2.2l-1,.8c-1-.8-2.2-1.4-3.7-1.9-1.5-.4-3.1-.7-4.8-.7-2.5,0-4.5.6-5.8,1.8-1.3,1.2-2,2.8-2,4.7s.6,3.4,1.7,4.7c1.1,1.2,2.8,1.8,4.9,1.8Z"/>
  </g>
  <line class="st1" x1="225" y1="100" x2="305" y2="100"/>
  <line class="st1" x1="225" y1="40" x2="245" y2="40"/>
  <line class="st1" x1="225" y1="60" x2="275" y2="60"/>
  <circle class="st5" cx="281.7" cy="60" r="8"/>
  <circle class="st5" cx="251.6" cy="40" r="8"/>
  <circle class="st4" cx="251.6" cy="40" r="5"/>
  <line class="st1" x1="225" y1="80" x2="245" y2="80"/>
  <circle class="st5" cx="251.6" cy="80" r="8"/>
  <circle class="st4" cx="251.6" cy="80" r="5"/>
  <line class="st1" x1="223.7" y1="20" x2="258.3" y2="20"/>
  <circle class="st5" cx="265" cy="20" r="8"/>
  <line class="st1" x1="225.3" y1="160" x2="245.3" y2="160"/>
  <line class="st1" x1="225.3" y1="140" x2="275.3" y2="140"/>
  <circle class="st5" cx="282" cy="140" r="8"/>
  <circle class="st5" cx="251.9" cy="160" r="8"/>
  <line class="st1" x1="225.3" y1="120" x2="245.3" y2="120"/>
  <circle class="st5" cx="251.9" cy="120" r="8"/>
  <circle class="st4" cx="251.9" cy="120" r="5"/>
  <line class="st1" x1="224" y1="180" x2="258.6" y2="180"/>
  <circle class="st5" cx="265.3" cy="180" r="8"/>
  <circle class="st4" cx="265.3" cy="180" r="5"/>
  <circle class="st5" cx="311.9" cy="99.8" r="10"/>
  <circle class="st4" cx="311.9" cy="99.8" r="6.3"/>
</svg>